<svg xmlns="http://www.w3.org/2000/svg" viewBox="0 0 594 981"><path d="M308,436c0-29-22-51-51-51c-29,0-51,22-51,51c0,29,22,51,51,51c29,0,51-22,51-51ZM594,961v-60c-65,0-98-27-98-86v-75c20-1,42-2,63-2h19v-75h-19c-45,0-84-11-186-57l-89-39c-57-25-91-34-127-34c-75,0-121,49-126,130h70c5-31,24-50,55-50c25,0,50,7,94,26l89,39c20,9,38,16,55,21c-259,37-379,169-379,328c0,81,28,145,83,193c55,49,132,73,230,73c85,0,179-21,250-52v-78c-63,27-157,50-250,50c-152,0-243-71-243-191c0-121,102-244,341-276v69c0,113,47,166,148,166Z"></path></svg>