<svg xmlns="http://www.w3.org/2000/svg" viewBox="0 0 881 981"><path d="M624,464c0-29-22-51-51-51c-29,0-51,22-51,51c0,29,22,51,51,51c29,0,51-22,51-51ZM796,769c0-92-60-186-193-186c-156,0-288,126-366,303c-41-21-54-57-54-110v-43h-70v43c0,91-32,125-113,125l-20,20v60c89,0,139-34,152-106c21,73,105,115,257,115c155,0,264-24,329-69c35,41,82,60,143,60l20-20v-60c-55,0-89-11-112-32c17-29,27-63,27-100ZM598,664c92,0,128,58,128,105c0,91-101,141-317,141c-45,0-85-2-114-7c35-71,79-128,132-172c53-45,110-67,171-67Z"></path></svg>