<svg xmlns="http://www.w3.org/2000/svg" viewBox="0 0 1265 981"><path d="M1054,464c0-29-22-51-51-51c-29,0-51,22-51,51c0,29,22,51,51,51c29,0,51-22,51-51ZM596,927v-1c35,45,103,64,223,64c277,0,407-77,407-221c0-92-60-186-193-186c-157,0-291,128-368,307c-39-17-54-46-62-95l-10-62h-71l14,86c5,39,9,72,9,101c0,117-66,172-207,172c-153,0-208-69-207-200c1-36,7-79,16-124h-70c-9,49-15,98-16,139c-1,167,80,265,277,265c169,0,258-88,258-245ZM1028,664c92,0,128,58,128,105c0,91-101,141-317,141c-47,0-86-2-115-6c35-71,79-128,132-173c53-45,111-67,172-67Z"></path></svg>