<svg xmlns="http://www.w3.org/2000/svg" viewBox="0 0 807 981"><path d="M462,472c0-29-22-51-51-51c-29,0-51,22-51,51c0,29,22,51,51,51c29,0,51-22,51-51ZM395,594c0-29-22-51-51-51c-29,0-51,22-51,51c0,29,22,51,51,51c29,0,51-22,51-51ZM527,594c0-29-22-51-51-51c-29,0-51,22-51,51c0,29,22,51,51,51c29,0,51-22,51-51ZM787,981l20-20v-60c-80,0-116-36-116-115v-88h-70v88c0,77-32,124-89,124c-49,0-90-39-90-124l-1-53h-70l1,53c0,85-38,124-90,124c-68,0-99-40-99-124l-1-53h-70l1,53c0,79-42,115-113,115l-20,20v60c88,0,138-30,151-95c15,65,65,104,141,104c65,0,107-34,118-102c16,65,67,102,131,102c63,0,106-33,118-104c17,60,68,95,148,95Z"></path></svg>