<svg xmlns="http://www.w3.org/2000/svg" viewBox="0 0 1086 981"><path d="M717,1052c0-31-14-57-35-77c45-5,87-16,124-28c60,25,135,34,236,34h24l20-20v-60h-44c-48,0-88-2-124-7c72-47,115-108,114-168c-1-100-70-143-214-143c-71,0-154,12-239,36v80l24,40c41,68,80,119,121,156c-29,4-62,6-95,6h-110v80h7c84,0,120,28,120,65c0,23-20,43-59,60c-39,17-109,26-210,26c-164,0-247-61-247-177c0-35,7-77,16-122h-70c-9,45-16,93-16,137c0,157,108,242,317,242c242,0,340-77,340-160ZM659,695l-8-13c68-15,122-19,167-19c96,0,143,20,144,69c1,53-46,106-133,138c-68-29-117-83-170-175Z"></path></svg>