<svg xmlns="http://www.w3.org/2000/svg" viewBox="0 0 1257 981"><path d="M633,123v-181h-60v181ZM651,308c41,0,64-33,64-92c0-13-2-30-3-43l-50,5c3,13,4,26,4,35c0,20-7,32-16,32c-13,0-22-19-22-59l-50,5c0,47-8,69-23,69c-12,0-16-10-16-23c0-12,4-27,8-40l-49,4c-4,15-7,33-7,48c0,47,21,74,54,74c27,0,44-18,51-55c9,27,27,40,55,40ZM1177,981v-773h-70v773ZM937,790v-506h-70v506c0,81-29,111-106,111c-77,0-116-37-116-121v-407h-70v407c0,88-30,121-113,121c-60,0-90-37-90-121v-322h-70v88l-145,94c-87,57-131,104-131,177c0,84,63,133,152,133c61,0,109-22,133-77c19,73,70,108,151,108c75,0,118-32,131-95c16,63,72,95,168,95c117,0,176-60,176-191ZM96,804c0-35,28-72,96-113l110-68v152c0,40-11,66-33,78c-21,11-48,17-80,17c-61,0-93-23-93-66Z"></path></svg>