<svg xmlns="http://www.w3.org/2000/svg" viewBox="0 0 915 981"><path d="M459,1128c71,0,135-14,191-41c56-27,97-63,122-106h-77c-61,53-128,81-236,81c-222,0-337-161-337-343c0-212,149-360,350-360c206,0,326,123,326,302c0,67-12,116-36,147c-24,31-50,46-79,46c-37,0-55-26-48-79l30-252h-83l-7,60c-13-33-50-68-121-68c-109,0-197,99-197,232c0,108,65,174,161,174c61,0,120-41,149-93c8,52,35,86,115,86c80,0,188-67,188-255c0-205-159-366-398-366c-231,0-427,183-427,428c0,212,147,407,414,407ZM436,857c-53,0-94-42-94-111c0-52,12-92,35-121c24-29,52-44,83-44c65,0,104,37,104,113c0,107-67,163-128,163Z"></path></svg>