<svg xmlns="http://www.w3.org/2000/svg" viewBox="0 0 915 981"><path d="M459,1039c69,0,131-13,185-40c55-26,94-60,119-102h-77c-60,51-122,75-227,75c-216,0-324-153-324-329c0-206,139-346,335-346c199,0,315,117,315,290c0,132-53,187-109,187c-37,0-51-26-44-77l29-244h-83l-7,58c-13-33-49-66-117-66c-107,0-191,95-191,225c0,104,63,169,156,169c60,0,117-40,145-91c7,51,34,84,111,84c78,0,183-65,183-247c0-200-157-355-388-355c-224,0-413,176-413,415c0,206,143,394,402,394ZM437,777c-53,0-90-40-90-108c0-101,52-160,113-160c63,0,101,37,101,109c0,102-64,159-124,159Z"></path></svg>