<svg xmlns="http://www.w3.org/2000/svg" viewBox="0 0 1160 981"><path d="M903,464c0-29-22-51-51-51c-29,0-51,22-51,51c0,29,22,51,51,51c29,0,51-22,51-51ZM214,544c0-29-22-51-51-51c-29,0-51,22-51,51c0,29,22,51,51,51c29,0,51-22,51-51ZM233,912c0-27-3-68-7-109l-8-69l172-19l10,91c8,70,32,118,71,145c40,26,106,39,197,39c155,0,264-24,329-69c35,41,82,60,143,60l20-20v-60c-55,0-89-11-112-32c17-29,27-63,27-100c0-92-60-186-193-186c-154,0-288,125-365,301c-29-17-42-45-47-88l-20-168l-312,35l18,148c4,36,7,74,7,101c0,151-51,220-160,220c-25,0-54-3-83-8v80c32,5,63,8,88,8c153,0,225-95,225-300ZM877,664c92,0,128,58,128,105c0,91-101,141-317,141c-47,0-85-2-114-7c35-71,79-128,132-172c53-45,110-67,171-67Z"></path></svg>