<svg xmlns="http://www.w3.org/2000/svg" viewBox="0 0 600 981"><path d="M272,1112h58v-123c63-5,114-26,155-65c41-39,61-85,61-139c0-63-18-108-55-135c-37-28-90-48-161-61v-242c72,9,111,48,126,123h75c-12-112-85-178-201-189v-89h-58v88c-60,3-109,23-147,59c-38,35-57,78-57,128c0,57,18,100,54,127c37,27,87,47,150,59v269c-117-11-140-76-151-152h-81c11,109,67,208,232,219ZM144,459c0-60,48-108,128-113v233c-53-11-88-26-104-45c-16-19-24-44-24-75ZM465,791c0,71-58,123-135,132v-260c53,11,88,26,107,45c19,19,28,47,28,83Z"></path></svg>