<svg xmlns="http://www.w3.org/2000/svg" viewBox="0 0 625 981"><path d="M285,1116h57v-127c65-5,119-27,160-66c42-39,63-87,63-143c0-65-19-111-57-140c-37-29-93-49-166-62v-253c76,9,117,51,132,128h76c-13-115-88-183-208-194v-91h-57v90c-62,3-113,23-152,60c-39,36-59,80-59,132c0,59,19,103,56,131c37,28,89,48,155,61v281c-124-11-148-80-159-159h-81c11,114,72,214,240,225ZM150,443c0-64,51-114,135-119v244c-56-11-93-27-110-47c-17-20-25-46-25-78ZM485,785c0,75-60,130-143,138v-271c111,21,143,58,143,133Z"></path></svg>