<svg xmlns="http://www.w3.org/2000/svg" viewBox="0 0 600 981"><path d="M272,1116h59v-127c66-5,120-27,161-66c41-39,62-87,62-143c0-65-19-111-57-140c-37-29-93-50-166-63v-250c75,9,115,51,130,127h78c-13-112-87-184-208-195v-91h-59v90c-62,5-113,25-152,61c-39,35-59,79-59,131c0,59,19,103,56,132c38,28,90,48,155,61v279c-122-11-145-80-156-159h-84c11,115,72,215,240,226ZM140,443c0-61,47-110,132-117v241c-54-11-90-27-107-47c-17-20-25-46-25-77ZM471,785c0,72-56,128-140,137v-269c108,21,140,59,140,132Z"></path></svg>