<svg xmlns="http://www.w3.org/2000/svg" viewBox="0 0 778 981"><path d="M421,483c0-17-15-32-32-32c-17,0-32,15-32,32c0,17,15,32,32,32c17,0,32-15,32-32ZM535,531c9-16,4-35-12-44c-15-9-34-4-43,12c-9,15-4,34,11,43c16,9,35,4,44-11ZM243,531c9,16,27,20,44,11c16-9,20-28,11-43c-9-16-28-21-44-12c-15,9-20,28-11,44ZM610,629c15-9,20-28,11-44c-8-15-27-20-43-11c-15,9-20,27-12,43c9,16,28,21,44,12ZM168,629c16,9,35,4,44-12c9-16,3-34-12-43c-16-9-35-4-44,11c-8,17-4,35,12,44ZM626,751c17,0,31-15,32-32c-1-17-14-32-33-32c-17,0-31,15-31,32c0,17,13,32,32,32ZM152,752c19,0,32-14,32-33c0-17-15-31-32-31c-17,0-32,15-32,32c1,17,15,32,32,32ZM578,865c16,9,35,4,44-11c8-17,4-36-12-45c-15-8-34-3-43,13c-9,15-5,34,11,43ZM200,865c15-9,20-27,12-43c-9-16-28-21-44-12c-15,9-20,28-11,44c8,15,27,20,43,11ZM298,940c9-15,4-34-11-43c-16-9-35-4-44,11c-9,16-4,35,12,44c15,9,34,4,43-12ZM480,940c9,16,27,20,44,12c15-9,20-28,12-44c-9-15-28-20-44-11c-15,9-21,27-12,43ZM421,956c0-17-15-32-32-32c-17,0-32,15-32,32c0,17,15,32,32,32c17,0,32-15,32-32Z"></path></svg>