<svg xmlns="http://www.w3.org/2000/svg" viewBox="0 0 738 981"><path d="M148,613c75,0,127-46,127-118c0-72-44-115-105-115c-37,0-62,14-75,30l1-92h159v-52h-210l-4,192h36c15-17,37-29,70-29c37,0,59,25,59,65c0,41-21,67-58,67c-44,0-56-21-61-52h-63c4,60,44,104,124,104ZM80,981h66l507-715h-66ZM577,986c72,0,130-36,130-103c0-41-24-71-64-86c31-13,51-36,51-71c0-57-55-91-116-91c-61,0-117,35-117,92c0,33,19,58,50,71c-37,13-63,43-63,87c0,67,61,101,129,101ZM578,778c-28,0-53-18-53-47c0-29,24-48,53-48c29,0,52,18,52,47c0,29-21,48-52,48ZM578,936c-33,0-62-20-62-57c0-37,29-58,62-58c35,0,62,21,62,57c0,37-27,58-62,58Z"></path></svg>