<svg xmlns="http://www.w3.org/2000/svg" viewBox="0 0 1002 981"><path d="M716,1026c0-57-41-115-130-130l57-20c86-30,225-88,318-88h23v-75h-39c-53,0-92-12-196-57l-89-39c-57-25-91-34-127-34c-75,0-121,49-126,130h70c5-31,24-50,55-50c25,0,50,7,94,26l100,44c28,12,50,21,71,28c-63,13-126,36-179,53l-179,60v80h104c40,0,67,8,81,25c15,16,22,32,22,47c0,65-96,106-259,106c-177,0-257-61-257-177c0-35,7-77,16-122h-70c-9,45-16,93-16,137c0,157,104,242,327,242c201,0,329-74,329-186ZM514,1343c0-29-22-51-51-51c-29,0-51,22-51,51c0,29,22,51,51,51c29,0,51-22,51-51ZM382,1343c0-29-22-51-51-51c-29,0-51,22-51,51c0,29,22,51,51,51c29,0,51-22,51-51Z"></path></svg>