<svg xmlns="http://www.w3.org/2000/svg" viewBox="0 0 0 981"><path d="M275,430c0-55-31-93-71-93c-44,0-75,34-75,71c0,43,37,69,94,74c-15,17-43,30-88,30c-17,0-36-2-51-5c4-12,6-25,6-34c0-47-24-69-77-69c-4,0-9,0-13,1v51c4-1,9-1,13-1c25,0,34,10,34,27c0,13-6,30-21,58c20,12,65,22,110,22c88,0,139-43,139-132ZM168,408c0-12,14-21,27-21c25,0,43,22,43,50v4c-49-5-70-13-70-33ZM265,787v-60l-68,10c-37,5-69-15-69-44c0-21,16-33,37-33c17,0,31,10,38,23l46-6c-5-48-36-77-81-77c-49,0-87,37-87,85c0,27,13,50,34,63l-52,7v60Z"></path></svg>