<svg xmlns="http://www.w3.org/2000/svg" viewBox="0 0 1191 981"><path d="M717,1052c0-35-17-64-44-85c32-4,61-10,88-17c47,25,103,40,166,40c147,0,229-73,229-188c0-57-20-103-61-139c-40-36-112-71-217-105l-141-46v68c-61,25-107,91-107,166c0,55,21,105,57,146c-47,5-102,9-163,9h-5v80h9c80,0,118,26,118,65c0,23-20,43-59,60c-39,17-109,26-210,26c-164,0-247-61-247-177c0-35,7-77,16-122h-70c-9,45-16,93-16,137c0,157,108,242,317,242c242,0,340-77,340-160ZM700,746c0-61,39-107,94-107c61,0,104,46,104,107c0,60-39,101-119,126c-51-29-79-77-79-126ZM968,746c0-31-7-60-20-84c104,41,139,79,139,139c0,77-67,109-154,109c-21,0-41-2-60-5c61-37,95-91,95-159ZM514,1343c0-29-22-51-51-51c-29,0-51,22-51,51c0,29,22,51,51,51c29,0,51-22,51-51ZM382,1343c0-29-22-51-51-51c-29,0-51,22-51,51c0,29,22,51,51,51c29,0,51-22,51-51Z"></path></svg>