<svg xmlns="http://www.w3.org/2000/svg" viewBox="0 0 776 981"><path d="M716,1032c0-45-32-89-87-104c43-24,66-67,66-119c0-61-33-117-133-202l-134-114l333-190l1-92l-418,245v68l176,150c40,34,67,60,82,79c15,19,23,37,23,56c0,40-27,65-78,65h-108v80h124c53,0,83,27,83,68c0,69-92,110-249,110c-184,0-267-61-267-177c0-35,7-77,16-122h-70c-9,45-17,93-16,137c7,157,108,242,337,242c195,0,319-80,319-180ZM211,747v-60l-68,10c-37,5-69-15-69-44c0-21,16-33,37-33c17,0,31,10,38,23l46-6c-5-48-36-77-81-77c-49,0-87,37-87,85c0,27,13,50,34,63l-52,7v60Z"></path></svg>