<svg xmlns="http://www.w3.org/2000/svg" viewBox="0 0 943 981"><path d="M717,1032c0-36-21-72-58-92c57-11,92-44,101-89l14,23c48,76,97,107,150,107l20-20v-60c-59,0-84-31-149-139l-160-267l342-199l1-88l-418,245v68l122,201c27,44,33,62,33,86c0,40-35,66-103,66h-172v80h124c53,0,83,27,83,68c0,69-92,110-249,110c-184,0-267-61-267-177c0-35,7-77,16-122h-70c-9,45-17,93-16,137c7,157,108,242,337,242c195,0,319-80,319-180ZM515,1343c0-29-22-51-51-51c-29,0-51,22-51,51c0,29,22,51,51,51c29,0,51-22,51-51ZM383,1343c0-29-22-51-51-51c-29,0-51,22-51,51c0,29,22,51,51,51c29,0,51-22,51-51Z"></path></svg>