<svg xmlns="http://www.w3.org/2000/svg" viewBox="0 0 917 981"><path d="M716,1044c0-45-22-78-65-99c47-12,81-38,94-79c8,77,56,115,152,115l20-20v-60c-45,0-75-8-92-25c-16-17-24-54-24-110v-558h-70v531c0,99-52,135-133,135h-159v80h109c34,0,59,8,74,25c16,16,24,32,24,47c0,65-92,106-249,106c-184,0-267-61-267-177c0-35,7-77,16-122h-70c-9,45-16,93-16,137c0,157,108,242,337,242c195,0,319-80,319-168ZM514,1343c0-29-22-51-51-51c-29,0-51,22-51,51c0,29,22,51,51,51c29,0,51-22,51-51ZM382,1343c0-29-22-51-51-51c-29,0-51,22-51,51c0,29,22,51,51,51c29,0,51-22,51-51Z"></path></svg>