<svg xmlns="http://www.w3.org/2000/svg" viewBox="0 0 576 981"><path d="M-22,315h46c0-20,8-33,32-33c41,0,73,17,121,17c57,0,91-35,91-94c0-53-31-84-83-84c-45,0-88,38-117,103h-12c-47,0-78,36-78,91ZM178,179c28,0,44,13,44,34c0,17-17,28-45,28c-24,0-47-6-70-11c17-32,42-51,71-51ZM48,981h279c127,0,189-44,189-140c0-57-28-108-100-173c29-36,49-74,58-113c10-40,15-92,15-156v-191h-70v191c0,53-4,96-11,129c-7,33-22,65-45,94l-321-268l-52,61l318,266l-51,44l-209,175ZM150,901l152-125c21-17,42-35,59-51c61,55,85,91,85,120c0,40-39,56-119,56Z"></path></svg>