<svg xmlns="http://www.w3.org/2000/svg" viewBox="0 0 917 981"><path d="M716,1044c0-45-22-78-65-99c47-12,81-38,94-79c8,77,56,115,152,115l20-20v-60c-45,0-75-8-92-25c-16-17-24-54-24-110v-558h-70v531c0,99-52,135-133,135h-159v80h109c34,0,59,8,74,25c16,16,24,32,24,47c0,65-92,106-249,106c-184,0-267-61-267-177c0-35,7-77,16-122h-70c-9,45-16,93-16,137c0,157,108,242,337,242c195,0,319-80,319-168ZM211,747v-60l-68,10c-37,5-69-15-69-44c0-21,16-33,37-33c17,0,31,10,38,23l46-6c-5-48-36-77-81-77c-49,0-87,37-87,85c0,27,13,50,34,63l-52,7v60Z"></path></svg>