<svg xmlns="http://www.w3.org/2000/svg" viewBox="0 0 626 981"><path d="M-20,981h78c103,0,158-16,265-80l63-37c51-31,88-51,113-61c25-10,48-15,70-15h39v-75h-34c-48,0-92-6-168-23l-95-21c37-27,51-76,51-156v-305h-70v285c0,62-10,103-30,124c-20,21-60,31-120,31h-91v80h71c81,0,125,3,162,11l107,23c15,3,31,7,44,8c-21,9-46,20-74,35l-68,36c-91,48-139,60-235,60h-58l-20,20ZM448,1091c0-29-22-51-51-51c-29,0-51,22-51,51c0,29,22,51,51,51c29,0,51-22,51-51ZM316,1091c0-29-22-51-51-51c-29,0-51,22-51,51c0,29,22,51,51,51c29,0,51-22,51-51ZM381,1213c0-29-22-51-51-51c-29,0-51,22-51,51c0,29,22,51,51,51c29,0,51-22,51-51Z"></path></svg>