<svg xmlns="http://www.w3.org/2000/svg" viewBox="0 0 872 981"><path d="M594,479c0-29-22-51-51-51c-29,0-51,22-51,51c0,29,22,51,51,51c29,0,51-22,51-51ZM702,1014c0-67-31-124-123-139l-139-22c-53-9-78-25-78-57c0-61,85-118,174-118c67,0,116,29,149,117l17,45c21,56,42,94,62,113c20,19,49,28,88,28l20-20v-60c-28,0-48-5-61-14c-13-9-24-28-35-57l-17-46c-49-132-108-186-216-186c-129,0-251,104-251,212c0,59,40,108,128,121l127,19c63,9,85,29,85,65c0,67-114,117-265,117c-163,0-237-57-237-177c0-35,5-77,16-122h-70c-11,45-16,93-16,137c0,165,98,242,307,242c190,0,335-85,335-198Z"></path></svg>