<svg xmlns="http://www.w3.org/2000/svg" viewBox="0 0 1125 981"><path d="M193,585c84,0,159-68,159-162c0-93-74-163-159-163c-84,0-158,69-158,165c0,93,75,160,158,160ZM126,981h74l438-715h-74ZM193,523c-51,0-86-35-86-99c0-65,35-102,86-102c52,0,86,40,86,101c0,63-34,100-86,100ZM564,989c84,0,159-68,159-163c0-94-74-162-159-162c-83,0-158,68-158,164c0,93,78,161,158,161ZM931,989c84,0,159-68,159-163c0-94-74-162-159-162c-83,0-158,68-158,164c0,93,78,161,158,161ZM564,927c-49,0-86-36-86-100c0-65,37-101,86-101c52,0,86,39,86,100c0,63-34,101-86,101ZM931,927c-49,0-85-36-85-100c0-65,36-101,85-101c52,0,86,39,86,100c0,63-34,101-86,101Z"></path></svg>