<svg xmlns="http://www.w3.org/2000/svg" viewBox="0 0 1000 981"><path d="M180,586c35,0,67-14,94-42c27-29,41-69,41-121c0-52-14-92-41-120c-27-29-58-43-94-43c-35,0-67,14-94,43c-27,29-41,69-41,122c0,101,66,161,135,161ZM91,981h76l437-715h-76ZM180,522c-39,0-61-35-61-98c0-64,22-100,61-100c39,0,61,39,61,99c0,61-22,99-61,99ZM512,989c35,0,67-14,94-42c27-29,41-69,41-121c0-52-14-92-41-120c-27-29-58-43-94-43c-35,0-67,14-94,43c-27,29-41,69-41,122c0,101,66,161,135,161ZM820,989c35,0,67-14,94-42c27-29,41-69,41-121c0-52-14-92-41-120c-27-29-58-43-94-43c-35,0-67,14-94,43c-27,29-41,69-41,122c0,101,66,161,135,161ZM512,925c-39,0-61-35-61-98c0-64,22-100,61-100c39,0,61,39,61,99c0,61-22,99-61,99ZM820,925c-39,0-61-35-61-98c0-64,22-100,61-100c39,0,61,39,61,99c0,61-22,99-61,99Z"></path></svg>