<svg xmlns="http://www.w3.org/2000/svg" viewBox="0 0 780 981"><path d="M651,314c0-29-22-51-51-51c-29,0-51,22-51,51c0,29,22,51,51,51c29,0,51-22,51-51ZM519,314c0-29-22-51-51-51c-29,0-51,22-51,51c0,29,22,51,51,51c29,0,51-22,51-51ZM696,1054c0-44-23-78-66-97c76-25,105-94,105-225c0-187-76-299-201-299c-100,0-183,94-183,200c0,108,82,172,205,172c49,0,75-4,107-13c-8,80-42,102-133,102h-111v80h111c60,0,96,23,96,62c0,60-85,96-229,96c-184,0-267-61-267-177c0-35,7-77,16-122h-70c-9,45-16,93-16,137c0,157,108,242,337,242c182,0,299-75,299-158ZM422,633c0-68,48-120,112-120c76,0,125,73,130,198c-39,11-64,14-107,14c-76,0-135-25-135-92Z"></path></svg>