<svg xmlns="http://www.w3.org/2000/svg" viewBox="0 0 1203 981"><path d="M616,862v-104l48-63l102-142v223c0,140,58,205,190,205c128,0,188-65,188-208c0-51-5-115-14-180h-73c11,76,17,137,17,180c0,88-29,128-118,128c-89,0-120-33-120-125v-319c31-40,54-66,70-79c16-13,31-19,44-19c29,0,45,19,45,59h70c0-92-39-139-115-139c-41,0-73,22-114,67v-138h-70v228c-12,16-26,34-39,54l-111,155v-437h-70v524c-51,52-99,72-158,72c-67,0-106-31-106-92c0-29,6-63,18-107h-72c-11,40-16,76-16,107c0,115,63,172,176,172c59,0,109-16,158-56v35c0,167-71,229-212,229c-151,0-204-69-203-200c1-36,7-79,16-124h-70c-9,49-15,98-16,139c-1,167,78,265,273,265c184,0,282-109,282-310ZM944,1112c0-29-22-51-51-51c-29,0-51,22-51,51c0,29,22,51,51,51c29,0,51-22,51-51ZM1076,1112c0-29-22-51-51-51c-29,0-51,22-51,51c0,29,22,51,51,51c29,0,51-22,51-51Z"></path></svg>