<svg xmlns="http://www.w3.org/2000/svg" viewBox="0 0 1374 981"><path d="M702,1014c0-67-31-124-123-139l-139-22c-53-9-78-25-78-57c0-61,85-118,174-118c67,0,112,28,145,107l19,45c54,126,110,159,277,159c244,0,357-71,357-220c0-92-60-186-193-186c-144,0-272,110-350,269c-5-9-12-20-17-32l-19-45c-26-61-54-105-85-134c-31-29-73-43-127-43c-129,0-251,104-251,212c0,59,40,108,128,121l127,19c63,9,85,29,85,65c0,67-114,117-265,117c-163,0-237-57-237-177c0-35,5-77,16-122h-70c-11,45-16,93-16,137c0,165,98,242,307,242c190,0,335-85,335-198ZM1136,664c92,0,128,58,128,105c0,96-84,140-267,140c-75,0-125-6-158-19c35-67,79-121,130-163c52-42,108-63,167-63Z"></path></svg>