<svg xmlns="http://www.w3.org/2000/svg" viewBox="0 0 1361 981"><path d="M672,1018c0-57-31-100-98-117l-114-30c-39-9-48-28-48-47c0-60,90-121,153-121c48,0,77,23,102,83l22,53c43,101,94,142,275,142c244,0,357-68,357-212c0-92-60-186-193-186c-145,0-274,111-352,272c-5-8-9-18-13-27l-22-53c-41-100-87-142-174-142c-102,0-223,99-223,207c0,56,28,91,109,110l90,23c49,12,59,34,59,49c0,69-137,110-245,110c-130,0-227-61-227-177c0-35,7-77,16-122h-70c-9,45-16,93-16,137c0,157,106,242,297,242c162,0,315-80,315-194ZM1123,664c92,0,128,58,128,105c0,91-84,132-267,132c-79,0-127-2-158-11c35-67,79-121,130-163c52-42,108-63,167-63Z"></path></svg>