<svg xmlns="http://www.w3.org/2000/svg" viewBox="0 0 539 981"><path d="M266,1118c100,0,180-71,180-162c0-60-22-99-59-127c69-21,110-77,110-134c0-54-18-93-54-116c-35-23-80-42-135-56c-55-14-92-28-109-43c-17-15-25-36-25-62c0-49,31-91,100-91c69,0,93,34,97,87h84c-3-100-75-157-183-157c-92,0-178,68-178,163c0,61,21,99,61,127c-69,20-113,70-113,135c0,49,17,86,50,111c34,25,78,44,133,58c58,15,96,30,114,45c18,15,27,36,27,62c0,49-33,90-102,90c-69,0-96-36-101-93h-85c1,104,77,163,188,163ZM326,796l-75-21c-84-23-127-47-127-100c0-49,35-84,87-95l79,21c80,21,125,44,125,101c0,45-28,79-89,94Z"></path></svg>