<svg xmlns="http://www.w3.org/2000/svg" viewBox="0 0 1359 981"><path d="M205,747v-60l-68,10c-37,5-69-15-69-44c0-21,16-33,37-33c17,0,31,10,38,23l46-6c-5-48-36-77-81-77c-49,0-87,37-87,85c0,27,13,50,34,63l-52,7v60ZM702,1014c0-67-31-124-123-139l-139-22c-53-9-78-25-78-57c0-61,85-118,174-118c67,0,118,27,147,107l17,45c24,64,47,107,70,128c23,21,56,32,99,32c73,0,115-33,127-105c17,67,73,105,142,105c100,0,161-63,161-198c0-37-2-81-7-129h-74c8,53,11,96,11,129c0,88-34,118-91,118c-49,0-90-39-90-124v-53h-70v44c0,92-40,133-104,133c-27,0-47-6-60-18c-13-12-27-36-40-72l-17-45c-47-124-106-177-214-177c-129,0-251,104-251,212c0,59,40,108,128,121l127,19c63,9,85,29,85,65c0,67-114,117-265,117c-163,0-237-57-237-177c0-35,5-77,16-122h-70c-11,45-16,93-16,137c0,165,98,242,307,242c190,0,335-85,335-198Z"></path></svg>