<svg xmlns="http://www.w3.org/2000/svg" viewBox="0 0 1340 981"><path d="M672,1018c0-57-31-100-98-117l-114-30c-39-9-48-28-48-47c0-60,89-121,148-121c45,0,81,28,106,92l19,45c17,40,38,75,61,105c24,30,59,45,104,45c73,0,115-33,127-105c17,67,73,105,142,105c100,0,161-63,161-198c0-37-2-81-7-129h-74c8,53,11,96,11,129c0,88-34,118-91,118c-49,0-90-39-90-124v-53h-70v44c0,92-40,133-104,133c-51,0-75-29-96-80l-19-46c-43-104-86-151-173-151c-102,0-223,99-223,207c0,56,28,91,109,110l90,23c49,12,59,34,59,49c0,69-137,110-245,110c-130,0-227-61-227-177c0-35,7-77,16-122h-70c-9,45-16,93-16,137c0,157,106,242,297,242c162,0,315-80,315-194Z"></path></svg>