<svg xmlns="http://www.w3.org/2000/svg" viewBox="0 0 0 981"><path d="M275,466c0-55-31-93-71-93c-44,0-75,34-75,71c0,43,37,69,94,74c-15,17-43,30-88,30c-17,0-36-2-51-5c4-12,6-25,6-34c0-47-24-69-77-69c-4,0-9,0-13,1v51c4-1,9-1,13-1c25,0,34,10,34,27c0,13-6,30-21,58c20,12,65,22,110,22c88,0,139-43,139-132ZM168,444c0-12,14-21,27-21c25,0,43,22,43,50v4c-49-5-70-13-70-33ZM208,759c44,0,68-36,68-97c0-13-2-30-3-43l-48,5c3,13,4,26,4,37c0,25-9,40-22,40c-16,0-25-22-25-69l-48,5c0,53-9,79-26,79c-16,0-22-14-22-31c0-13,4-29,8-42l-47,4c-4,15-7,33-7,48c0,49,21,79,58,79c28,0,45-19,53-58c9,29,28,43,57,43Z"></path></svg>