<svg xmlns="http://www.w3.org/2000/svg" viewBox="0 0 1166 981"><path d="M774,492c0-29-22-51-51-51c-29,0-51,22-51,51c0,29,22,51,51,51c29,0,51-22,51-51ZM707,614c0-29-22-51-51-51c-29,0-51,22-51,51c0,29,22,51,51,51c29,0,51-22,51-51ZM839,614c0-29-22-51-51-51c-29,0-51,22-51,51c0,29,22,51,51,51c29,0,51-22,51-51ZM233,912c0-27-2-68-7-109l-4-33l172-19l6,55c7,68,23,116,48,143c25,27,65,41,120,41c80,0,123-33,136-101c15,64,63,101,138,101c80,0,125-34,137-105c17,61,76,96,167,96l20-20v-60c-91,0-136-36-136-115v-88h-70v88c0,85-35,124-108,124c-65,0-96-39-96-124v-53h-70v53c0,85-35,124-108,124c-69,0-99-30-108-114l-16-133l-312,35l14,113c4,36,7,74,7,101c0,151-51,220-160,220c-25,0-54-3-83-8v80c32,5,63,8,88,8c153,0,225-95,225-300Z"></path></svg>