<svg xmlns="http://www.w3.org/2000/svg" viewBox="0 0 1418 981"><path d="M1065,472c0-29-22-51-51-51c-29,0-51,22-51,51c0,29,22,51,51,51c29,0,51-22,51-51ZM998,594c0-29-22-51-51-51c-29,0-51,22-51,51c0,29,22,51,51,51c29,0,51-22,51-51ZM1130,594c0-29-22-51-51-51c-29,0-51,22-51,51c0,29,22,51,51,51c29,0,51-22,51-51ZM774,820l-17-45c-47-124-106-177-214-177c-129,0-251,104-251,212c0,59,40,108,128,121l127,19c63,9,85,29,85,65c0,67-114,117-265,117c-163,0-237-57-237-177c0-35,5-77,16-122h-70c-11,45-16,93-16,137c0,165,98,242,307,242c190,0,335-85,335-198c0-67-31-124-123-139l-139-22c-53-9-78-25-78-57c0-61,85-118,174-118c67,0,118,27,147,107l17,45c24,64,47,107,70,128c23,21,56,32,99,32c73,0,114-33,127-104c15,65,65,104,128,104c61,0,111-39,126-106c15,61,68,97,148,97l20-20v-60c-77,0-116-36-116-115v-88h-70v88c0,85-41,124-98,124c-48,0-86-39-86-124v-53h-70v44c0,92-40,133-104,133c-27,0-47-6-60-18c-13-12-27-36-40-72Z"></path></svg>