<svg xmlns="http://www.w3.org/2000/svg" viewBox="0 0 1054 981"><path d="M759,492c0-29-22-51-51-51c-29,0-51,22-51,51c0,29,22,51,51,51c29,0,51-22,51-51ZM212,579c0-29-22-51-51-51c-29,0-51,22-51,51c0,29,22,51,51,51c29,0,51-22,51-51ZM692,614c0-29-22-51-51-51c-29,0-51,22-51,51c0,29,22,51,51,51c29,0,51-22,51-51ZM824,614c0-29-22-51-51-51c-29,0-51,22-51,51c0,29,22,51,51,51c29,0,51-22,51-51ZM233,912c0-27-2-68-7-109l-4-33l172-19l6,55c7,68,23,116,48,143c25,27,65,41,120,41c75,0,113-34,124-102c17,65,73,102,141,102c100,0,161-63,161-198c0-37-3-82-8-129h-74c8,53,12,96,12,129c0,88-34,118-91,118c-49,0-90-39-90-124v-53h-70v53c0,85-40,124-95,124c-69,0-99-30-108-114l-16-133l-312,35l14,113c4,36,7,74,7,101c0,151-51,220-160,220c-25,0-54-3-83-8v80c32,5,63,8,88,8c153,0,225-95,225-300Z"></path></svg>