<svg xmlns="http://www.w3.org/2000/svg" viewBox="0 0 626 981"><path d="M-20,981h78c103,0,158-16,265-80l63-37c51-31,88-51,113-61c25-10,48-15,70-15h39v-75h-39c-53,0-92-12-196-57l-89-39c-57-25-91-34-127-34c-75,0-121,49-126,130h70c5-31,24-50,55-50c25,0,50,7,94,26l89,39c41,17,73,30,104,38c-23,9-49,22-82,39l-68,36c-91,48-139,60-235,60h-58l-20,20ZM434,1112c0-29-22-51-51-51c-29,0-51,22-51,51c0,29,22,51,51,51c29,0,51-22,51-51ZM302,1112c0-29-22-51-51-51c-29,0-51,22-51,51c0,29,22,51,51,51c29,0,51-22,51-51ZM367,1234c0-29-22-51-51-51c-29,0-51,22-51,51c0,29,22,51,51,51c29,0,51-22,51-51Z"></path></svg>