<svg xmlns="http://www.w3.org/2000/svg" viewBox="0 0 480 981"><path d="M357,464c0-29-22-51-51-51c-29,0-51,22-51,51c0,29,22,51,51,51c29,0,51-22,51-51ZM225,464c0-29-22-51-51-51c-29,0-51,22-51,51c0,29,22,51,51,51c29,0,51-22,51-51ZM238,990h4c59,0,105-18,138-53c33-35,50-80,50-134c0-119-74-220-188-220h-4c-114,0-188,101-188,220c0,54,16,99,49,134c33,35,80,53,139,53ZM120,803c0-38,11-71,32-98c21-28,50-42,86-42h4c36,0,65,14,86,42c21,27,32,60,32,98c0,63-45,107-118,107h-4c-73,0-118-44-118-107Z"></path></svg>