<svg xmlns="http://www.w3.org/2000/svg" viewBox="0 0 986 981"><path d="M852,387c0-29-22-51-51-51c-29,0-51,22-51,51c0,29,22,51,51,51c29,0,51-22,51-51ZM785,509c0-29-22-51-51-51c-29,0-51,22-51,51c0,29,22,51,51,51c29,0,51-22,51-51ZM917,509c0-29-22-51-51-51c-29,0-51,22-51,51c0,29,22,51,51,51c29,0,51-22,51-51ZM373,594c0-29-22-51-51-51c-29,0-51,22-51,51c0,29,22,51,51,51c29,0,51-22,51-51ZM614,900c0-24-3-60-7-97l-8-69l172-19l10,91c7,66,25,112,52,137c27,25,72,38,133,38l20-20v-60c-49,0-82-7-101-20c-18-14-29-42-34-85l-20-168l-312,35l18,148c4,32,7,65,7,89c0,137-66,192-207,192c-131,0-207-59-207-167c0-37,7-83,16-132h-70c-9,49-16,100-16,147c0,151,101,232,277,232c173,0,277-95,277-272Z"></path></svg>