<svg xmlns="http://www.w3.org/2000/svg" viewBox="0 0 744 981"><path d="M155,613c80,0,130-39,130-103c0-45-27-73-67-82c33-12,57-37,57-74c0-52-43-92-115-92c-73,0-120,44-124,105h61c4-33,27-55,62-55c35,0,52,20,52,47c0,31-19,49-56,49h-25v47h26c40,0,60,18,60,54c0,33-20,54-63,54c-45,0-64-26-68-61h-61c1,67,48,111,131,111ZM87,981h66l507-715h-66ZM583,986c72,0,130-36,130-103c0-41-24-71-64-86c31-13,51-36,51-71c0-57-55-91-116-91c-61,0-117,35-117,92c0,33,19,58,50,71c-37,13-63,43-63,87c0,67,61,101,129,101ZM584,778c-28,0-53-18-53-47c0-29,24-48,53-48c29,0,52,18,52,47c0,29-21,48-52,48ZM584,936c-33,0-62-20-62-57c0-37,29-58,62-58c35,0,62,21,62,57c0,37-27,58-62,58Z"></path></svg>