<svg xmlns="http://www.w3.org/2000/svg" viewBox="0 0 760 981"><path d="M11,608h251v-51h-142l73-72c40-39,66-77,66-122c0-61-42-101-114-101c-72,0-119,43-123,118h61c5-47,27-66,60-66c32,0,50,19,50,50c0,32-21,64-54,97l-128,136ZM96,981h66l507-715h-66ZM597,986c80,0,130-39,130-103c0-45-27-73-67-82c33-12,57-37,57-74c0-52-43-92-115-92c-73,0-120,44-124,105h61c4-33,27-55,62-55c35,0,52,20,52,47c0,31-19,49-56,49h-25v47h26c40,0,60,18,60,54c0,33-20,54-63,54c-45,0-64-26-68-61h-61c1,67,48,111,131,111Z"></path></svg>