<svg xmlns="http://www.w3.org/2000/svg" viewBox="0 0 810 981"><path d="M726,1044c0-45-23-79-68-100c63-21,92-78,92-171c0-51-5-115-14-180h-73c11,76,17,137,17,180c0,68-24,101-121,101h-110v80h109c37,0,63,8,77,25c14,16,21,32,21,47c0,65-96,106-259,106c-184,0-267-61-267-177c0-35,7-77,16-122h-70c-9,45-16,93-16,137c0,157,108,242,337,242c201,0,329-80,329-168ZM773,1307c0-29-22-51-51-51c-29,0-51,22-51,51c0,29,22,51,51,51c29,0,51-22,51-51ZM641,1307c0-29-22-51-51-51c-29,0-51,22-51,51c0,29,22,51,51,51c29,0,51-22,51-51Z"></path></svg>