<svg xmlns="http://www.w3.org/2000/svg" viewBox="0 0 752 981"><path d="M702,974c0-67-31-124-123-139l-139-22c-53-9-78-25-78-57c0-67,76-150,151-150c45,0,76,25,85,73h70c-9-100-57-153-145-153c-106,0-231,126-231,244c0,59,40,108,128,121l127,19c63,9,85,29,85,65c0,90-114,157-265,157c-163,0-237-57-237-177c0-35,5-77,16-122h-70c-11,45-16,93-16,137c0,165,98,242,307,242c190,0,335-102,335-238ZM208,747v-60l-68,10c-37,5-69-15-69-44c0-21,16-33,37-33c17,0,31,10,38,23l46-6c-5-48-36-77-81-77c-49,0-87,37-87,85c0,27,13,50,34,63l-52,7v60Z"></path></svg>