<svg xmlns="http://www.w3.org/2000/svg" viewBox="0 0 986 981"><path d="M897,542v-60l-68,10c-37,5-69-15-69-44c0-21,16-33,37-33c17,0,31,10,38,23l46-6c-5-48-36-77-81-77c-49,0-87,37-87,85c0,27,13,50,34,63l-52,7v60ZM373,594c0-29-22-51-51-51c-29,0-51,22-51,51c0,29,22,51,51,51c29,0,51-22,51-51ZM614,900c0-24-3-60-7-97l-8-69l172-19l10,91c7,66,25,112,52,137c27,25,72,38,133,38l20-20v-60c-49,0-82-7-101-20c-18-14-29-42-34-85l-20-168l-312,35l18,148c4,32,7,65,7,89c0,137-66,192-207,192c-131,0-207-59-207-167c0-37,7-83,16-132h-70c-9,49-16,100-16,147c0,151,101,232,277,232c173,0,277-95,277-272Z"></path></svg>