<svg xmlns="http://www.w3.org/2000/svg" viewBox="0 0 600 981"><path d="M339,280c0-29-22-51-51-51c-29,0-51,22-51,51c0,29,22,51,51,51c29,0,51-22,51-51ZM566,1241v-78c-59,27-149,50-238,50c-133,0-223-50-223-149c0-120,112-196,353-239l51-9v-81l-47,9c-63,12-88,16-128,16c-50,0-92-14-126-43c-33-29-50-64-50-106c0-84,51-132,130-132c61,0,107,36,120,93h70c-9-108-81-173-190-173c-114,0-200,88-200,207c0,101,68,181,164,209c-136,49-217,141-217,249c0,74,27,131,80,170c53,39,124,59,213,59c83,0,171-21,238-52Z"></path></svg>